Results
version=1
nRows=58
nColumns=21
inDegrees=yes
endheader
time	sternoclavicular_r2	sternoclavicular_r3	unrotscap_r3	unrotscap_r2	acromioclavicular_r2	acromioclavicular_r3	acromioclavicular_r1	unrothum_r1	unrothum_r3	unrothum_r2	elv_angle	shoulder_elv	shoulder1_r2	shoulder_rot	elbow_flexion	pro_sup	deviation	flexion	wrist_hand_r1	wrist_hand_r3	
1.25	-6.9124	2.9275	-2.9282	6.9128	-1.3995	11.312	5.085	-5.0841	-11.311	1.3998	50.778	28.565	-50.778	-1.0726	83.339	38.325	2.505e-05	-6.7787e-06	3.0483e-05	-1.8654e-06
1.255	-6.9782	2.9553	-2.9561	6.9786	-1.4128	11.419	5.1334	-5.1325	-11.419	1.4131	51.142	28.836	-51.142	-0.94711	82.864	38.357	2.6322e-05	-6.6724e-06	3.2664e-05	-1.7348e-06
1.26	-7.0442	2.9833	-2.9841	7.0446	-1.4262	11.527	5.182	-5.1811	-11.527	1.4265	51.505	29.109	-51.505	-0.82247	82.379	38.389	2.5892e-05	-6.6941e-06	3.1794e-05	-1.6313e-06
1.265	-7.1098	3.0111	-3.0119	7.1103	-1.4395	11.635	5.2302	-5.2293	-11.635	1.4398	51.866	29.381	-51.866	-0.69931	81.889	38.421	2.5507e-05	-6.6315e-06	3.0987e-05	-1.588e-06
1.27	-7.1752	3.0388	-3.0395	7.1756	-1.4527	11.742	5.2783	-5.2774	-11.742	1.453	52.226	29.651	-52.225	-0.57698	81.393	38.453	2.5126e-05	-6.5824e-06	3.0224e-05	-1.5305e-06
1.275	-7.2402	3.0663	-3.0671	7.2406	-1.4659	11.848	5.3261	-5.3252	-11.848	1.4662	52.583	29.919	-52.583	-0.45548	80.89	38.485	2.4666e-05	-6.5316e-06	2.9262e-05	-1.4771e-06
1.28	-7.3049	3.0937	-3.0945	7.3053	-1.479	11.954	5.3737	-5.3728	-11.954	1.4793	52.932	30.186	-52.932	-0.33488	80.384	38.518	2.4452e-05	-6.4213e-06	2.886e-05	-1.3427e-06
1.285	-7.3692	3.121	-3.1217	7.3697	-1.492	12.059	5.421	-5.4202	-12.059	1.4923	53.274	30.452	-53.274	-0.21545	79.873	38.553	2.4165e-05	-6.4218e-06	2.8424e-05	-1.3527e-06
1.29	-7.4334	3.1481	-3.1489	7.4338	-1.505	12.164	5.4682	-5.4673	-12.164	1.5053	53.608	30.718	-53.608	-0.097178	79.358	38.589	2.3878e-05	-6.3193e-06	2.8058e-05	-1.2311e-06
1.295	-7.4974	3.1753	-3.176	7.4979	-1.5179	12.269	5.5153	-5.5144	-12.269	1.5183	53.94	30.982	-53.94	0.019973	78.837	38.626	2.3558e-05	-6.2599e-06	2.767e-05	-1.1623e-06
1.3	-7.5613	3.2023	-3.2031	7.5618	-1.5309	12.374	5.5623	-5.5614	-12.373	1.5312	54.27	31.246	-54.269	0.13601	78.31	38.665	2.3228e-05	-6.1589e-06	2.7308e-05	-1.0407e-06
1.305	-7.6244	3.229	-3.2298	7.6248	-1.5436	12.477	5.6087	-5.6078	-12.477	1.544	54.596	31.507	-54.596	0.25026	77.783	38.705	2.3036e-05	-6.1988e-06	2.7436e-05	-9.4508e-07
1.31	-7.6866	3.2554	-3.2562	7.6871	-1.5562	12.579	5.6545	-5.6536	-12.579	1.5566	54.919	31.764	-54.919	0.36219	77.255	38.746	2.311e-05	-6.4849e-06	2.8024e-05	-1.2765e-06
1.315	-7.7485	3.2816	-3.2824	7.7489	-1.5688	12.68	5.6999	-5.6991	-12.68	1.5691	55.24	32.02	-55.24	0.47258	76.726	38.788	2.2724e-05	-6.6652e-06	2.7755e-05	-1.4312e-06
1.32	-7.8102	3.3077	-3.3085	7.8106	-1.5812	12.781	5.7453	-5.7445	-12.781	1.5816	55.558	32.274	-55.558	0.58169	76.194	38.831	2.2926e-05	-6.9845e-06	2.8859e-05	-1.5498e-06
1.325	-7.8717	3.3338	-3.3345	7.8722	-1.5937	12.881	5.7906	-5.7898	-12.881	1.5941	55.875	32.529	-55.875	0.68973	75.657	38.877	2.2246e-05	-7.3073e-06	2.8129e-05	-1.6003e-06
1.33	-7.9321	3.3594	-3.3601	7.9326	-1.6059	12.98	5.835	-5.8342	-12.98	1.6063	56.186	32.779	-56.186	0.79489	75.123	38.922	2.2138e-05	-7.4581e-06	2.8035e-05	-1.778e-06
1.335	-7.9918	3.3847	-3.3854	7.9922	-1.618	13.078	5.8789	-5.8781	-13.078	1.6184	56.493	33.025	-56.493	0.8977	74.59	38.969	2.1418e-05	-7.7368e-06	2.6739e-05	-1.9803e-06
1.34	-8.0505	3.4095	-3.4103	8.0509	-1.6299	13.174	5.922	-5.9213	-13.174	1.6303	56.794	33.267	-56.794	0.99715	74.06	39.015	2.0965e-05	-7.7705e-06	2.6073e-05	-2.2302e-06
1.345	-8.1084	3.4341	-3.4348	8.1089	-1.6416	13.269	5.9646	-5.9639	-13.269	1.642	57.09	33.507	-57.09	1.0937	73.531	39.062	2.0391e-05	-7.8714e-06	2.504e-05	-2.4527e-06
1.35	-8.1657	3.4583	-3.459	8.1661	-1.6532	13.362	6.0067	-6.006	-13.362	1.6536	57.381	33.743	-57.381	1.1874	73.002	39.11	1.999e-05	-7.9739e-06	2.4461e-05	-2.687e-06
1.355	-8.2217	3.482	-3.4828	8.2221	-1.6646	13.454	6.0479	-6.0472	-13.454	1.6649	57.665	33.975	-57.665	1.2776	72.479	39.158	1.9692e-05	-7.9843e-06	2.4077e-05	-2.8953e-06
1.36	-8.2767	3.5053	-3.5061	8.2772	-1.6757	13.544	6.0884	-6.0877	-13.544	1.6761	57.948	34.202	-57.948	1.3644	71.959	39.204	1.8663e-05	-8.0282e-06	2.2319e-05	-3.117e-06
1.365	-8.3309	3.5283	-3.529	8.3313	-1.6867	13.633	6.1282	-6.1275	-13.633	1.687	58.228	34.426	-58.228	1.448	71.442	39.249	1.6919e-05	-8.0576e-06	1.9333e-05	-3.3183e-06
1.37	-8.3843	3.5509	-3.5517	8.3847	-1.6975	13.72	6.1675	-6.1668	-13.72	1.6978	58.509	34.647	-58.509	1.5284	70.925	39.294	1.5187e-05	-8.0126e-06	1.6386e-05	-3.5702e-06
1.375	-8.437	3.5732	-3.574	8.4375	-1.7082	13.806	6.2063	-6.2056	-13.806	1.7085	58.788	34.865	-58.788	1.6056	70.409	39.338	1.3406e-05	-7.9931e-06	1.3351e-05	-3.8106e-06
1.38	-8.489	3.5953	-3.596	8.4895	-1.7187	13.892	6.2446	-6.2439	-13.892	1.7191	59.066	35.08	-59.066	1.6803	69.896	39.381	1.173e-05	-8.0178e-06	1.0615e-05	-4.0082e-06
1.385	-8.5403	3.617	-3.6177	8.5408	-1.7291	13.975	6.2823	-6.2816	-13.976	1.7294	59.344	35.292	-59.343	1.7526	69.386	39.423	9.7409e-06	-8.0835e-06	7.473e-06	-4.1816e-06
1.39	-8.5911	3.6385	-3.6392	8.5915	-1.7394	14.058	6.3196	-6.319	-14.059	1.7397	59.62	35.501	-59.62	1.8232	68.879	39.464	8.1596e-06	-8.1755e-06	5.1896e-06	-4.3329e-06
1.395	-8.6413	3.6598	-3.6605	8.6417	-1.7495	14.141	6.3565	-6.3559	-14.141	1.7499	59.896	35.709	-59.896	1.8924	68.374	39.505	6.327e-06	-8.2761e-06	1.7614e-06	-4.4775e-06
1.4	-8.6912	3.6809	-3.6816	8.6917	-1.7596	14.222	6.3933	-6.3926	-14.222	1.76	60.173	35.915	-60.173	1.9601	67.869	39.545	5.1678e-06	-8.3403e-06	-1.7184e-07	-4.5677e-06
1.405	-8.7402	3.7017	-3.7024	8.7407	-1.7696	14.303	6.4293	-6.4287	-14.303	1.7699	60.443	36.118	-60.443	2.026	67.371	39.584	3.7274e-06	-8.5116e-06	-2.4595e-06	-4.7847e-06
1.41	-8.7883	3.7221	-3.7228	8.7887	-1.7793	14.381	6.4647	-6.464	-14.381	1.7796	60.707	36.316	-60.707	2.0901	66.879	39.623	2.8468e-06	-8.5853e-06	-3.9013e-06	-4.8776e-06
1.415	-8.8359	3.7422	-3.7429	8.8363	-1.7889	14.459	6.4996	-6.499	-14.459	1.7893	60.966	36.513	-60.966	2.153	66.393	39.661	2.4727e-06	-8.8916e-06	-4.4312e-06	-5.2103e-06
1.42	-8.8826	3.762	-3.7627	8.883	-1.7984	14.535	6.534	-6.5334	-14.536	1.7987	61.218	36.706	-61.218	2.2135	65.914	39.699	1.9446e-06	-9.2455e-06	-5.3565e-06	-5.5401e-06
1.425	-8.9284	3.7814	-3.7821	8.9288	-1.8077	14.61	6.5677	-6.5671	-14.611	1.808	61.463	36.895	-61.463	2.2715	65.443	39.736	1.7561e-06	-9.5926e-06	-5.541e-06	-5.8635e-06
1.43	-8.9736	3.8005	-3.8012	8.974	-1.8168	14.684	6.6009	-6.6004	-14.685	1.8171	61.705	37.082	-61.705	2.3273	64.977	39.773	1.1082e-06	-9.966e-06	-6.5138e-06	-6.2433e-06
1.435	-9.0179	3.8193	-3.82	9.0183	-1.8258	14.757	6.6335	-6.6329	-14.757	1.8261	61.942	37.265	-61.942	2.3815	64.519	39.808	2.5733e-07	-1.0285e-05	-7.9586e-06	-6.5399e-06
1.44	-9.0614	3.8377	-3.8384	9.0618	-1.8346	14.828	6.6655	-6.6649	-14.828	1.8349	62.173	37.445	-62.173	2.4341	64.068	39.842	-4.7987e-07	-1.0495e-05	-9.3846e-06	-6.9927e-06
1.445	-9.1042	3.8559	-3.8565	9.1046	-1.8433	14.898	6.697	-6.6964	-14.898	1.8436	62.399	37.622	-62.399	2.4851	63.623	39.876	-1.2362e-06	-1.0715e-05	-1.0919e-05	-7.4197e-06
1.45	-9.1463	3.8737	-3.8744	9.1467	-1.8518	14.967	6.7279	-6.7274	-14.967	1.8521	62.62	37.796	-62.62	2.5349	63.184	39.909	-2.1143e-06	-1.0958e-05	-1.2859e-05	-7.8951e-06
1.455	-9.188	3.8913	-3.892	9.1884	-1.8602	15.035	6.7586	-6.758	-15.035	1.8605	62.836	37.968	-62.836	2.5837	62.748	39.942	-2.628e-06	-1.1111e-05	-1.4242e-05	-8.347e-06
1.46	-9.2292	3.9088	-3.9095	9.2296	-1.8686	15.103	6.7889	-6.7884	-15.103	1.8689	63.048	38.138	-63.048	2.6318	62.316	39.974	-4.0849e-06	-1.1161e-05	-1.7428e-05	-8.6092e-06
1.465	-9.2703	3.9262	-3.9269	9.2707	-1.8769	15.17	6.8191	-6.8186	-15.17	1.8772	63.255	38.308	-63.255	2.6793	61.884	40.006	-5.0947e-06	-1.1263e-05	-1.977e-05	-8.9586e-06
1.47	-9.3104	3.9432	-3.9439	9.3108	-1.885	15.236	6.8487	-6.8481	-15.236	1.8853	63.458	38.474	-63.457	2.7257	61.46	40.037	-6.8232e-06	-1.116e-05	-2.3641e-05	-9.4468e-06
1.475	-9.3498	3.9599	-3.9605	9.3502	-1.893	15.3	6.8776	-6.8771	-15.3	1.8933	63.655	38.637	-63.655	2.7706	61.041	40.067	-7.974e-06	-1.0994e-05	-2.6298e-05	-1.0005e-05
1.48	-9.3889	3.9764	-3.9771	9.3893	-1.9009	15.364	6.9064	-6.9058	-15.364	1.9012	63.848	38.798	-63.848	2.8149	60.627	40.097	-9.8887e-06	-1.0896e-05	-2.9809e-05	-1.0526e-05
1.485	-9.4276	3.9928	-3.9935	9.4279	-1.9088	15.427	6.9348	-6.9342	-15.427	1.909	64.038	38.958	-64.038	2.8584	60.215	40.126	-1.1212e-05	-1.0743e-05	-3.211e-05	-1.1081e-05
1.49	-9.4659	4.0091	-4.0097	9.4663	-1.9165	15.49	6.963	-6.9625	-15.49	1.9168	64.225	39.116	-64.225	2.9017	59.805	40.155	-1.2937e-05	-1.0678e-05	-3.5407e-05	-1.1566e-05
1.495	-9.5036	4.025	-4.0257	9.504	-1.9242	15.552	6.9907	-6.9902	-15.552	1.9244	64.407	39.272	-64.407	2.9438	59.401	40.183	-1.4587e-05	-1.0604e-05	-3.8361e-05	-1.207e-05
1.5	-9.5406	4.0407	-4.0413	9.5409	-1.9316	15.612	7.0179	-7.0174	-15.612	1.9319	64.584	39.425	-64.584	2.9847	59.004	40.21	-1.6432e-05	-1.0513e-05	-4.1822e-05	-1.2556e-05
1.505	-9.5773	4.0563	-4.0569	9.5777	-1.9391	15.672	7.0449	-7.0444	-15.672	1.9393	64.758	39.577	-64.758	3.0248	58.608	40.238	-1.8918e-05	-1.0464e-05	-4.641e-05	-1.308e-05
1.51	-9.6139	4.0717	-4.0724	9.6142	-1.9465	15.732	7.0718	-7.0713	-15.732	1.9467	64.929	39.728	-64.929	3.064	58.213	40.265	-2.0021e-05	-1.0371e-05	-4.8338e-05	-1.3572e-05
1.515	-9.6502	4.0871	-4.0877	9.6506	-1.9538	15.792	7.0985	-7.098	-15.792	1.9541	65.098	39.878	-65.098	3.1023	57.82	40.293	-1.9604e-05	-1.0297e-05	-4.7622e-05	-1.4088e-05
1.52	-9.6858	4.1022	-4.1028	9.6861	-1.9611	15.85	7.1247	-7.1242	-15.85	1.9613	65.261	40.025	-65.26	3.1394	57.433	40.321	-1.9332e-05	-1.036e-05	-4.7085e-05	-1.449e-05
1.525	-9.7206	4.117	-4.1176	9.721	-1.9681	15.907	7.1503	-7.1498	-15.907	1.9683	65.418	40.169	-65.418	3.1753	57.051	40.349	-1.8843e-05	-1.038e-05	-4.6192e-05	-1.4925e-05
1.53	-9.7549	4.1315	-4.1321	9.7552	-1.975	15.963	7.1755	-7.175	-15.963	1.9753	65.571	40.31	-65.571	3.2098	56.672	40.377	-1.8667e-05	-1.0416e-05	-4.5898e-05	-1.535e-05
1.535	-9.7886	4.1458	-4.1464	9.789	-1.9819	16.018	7.2003	-7.1998	-16.018	1.9821	65.718	40.45	-65.718	3.2426	56.296	40.404	-1.8196e-05	-1.0509e-05	-4.5336e-05	-1.572e-05
